# xmcd
#
# Track frame offsets:
#	150
#	15904
#	31986
#	49516
#	65954
#	80844
#	92965
#	108305
#	137557
#	159375
#	173336
#	189293
#	209500
#	224204
#	242099
#	260641
#
# Disc length: 3685 seconds
#
# Revision: 0
# Processed by: cddbd v1.5.2PL0 Copyright (c) Steve Scherf et al.
# Submitted via: EZCDAudioConverter 2.3.4.1
#
DISCID=e10e6310
DTITLE=Various Artist - 16 Great Southern Gospel Classics Vol. 3
DYEAR=1900
DGENRE=
TTITLE0=Gone
TTITLE1=Come Morning
TTITLE2=Oh For A Thousand Tongues
TTITLE3=Jesus Built A Bridge
TTITLE4=Called Out
TTITLE5=Learning To Lean
TTITLE6=The Three Nails
TTITLE7=There Is A River
TTITLE8=I Bowed On My Knees And Cried Holy
TTITLE9=I've Never Been This Homesick Before
TTITLE10=Lazarus Come Forth
TTITLE11=Written In Red
TTITLE12=Two Winning Hands
TTITLE13=There Rose A Lamb
TTITLE14=Sorry I Never Knew You
TTITLE15=It Is No Secret
EXTD=
EXTT0=
EXTT1=
EXTT2=
EXTT3=
EXTT4=
EXTT5=
EXTT6=
EXTT7=
EXTT8=
EXTT9=
EXTT10=
EXTT11=
EXTT12=
EXTT13=
EXTT14=
EXTT15=
PLAYORDER=
